<?xml version="1.0" encoding="utf-8"?>
<!-- Generator: Adobe Illustrator 24.0.0, SVG Export Plug-In . SVG Version: 6.00 Build 0)  -->
<svg version="1.1" id="Layer_1" xmlns="http://www.w3.org/2000/svg" xmlns:xlink="http://www.w3.org/1999/xlink" x="0px" y="0px"
	 viewBox="0 0 242.6 242.6" style="enable-background:new 0 0 242.6 242.6;" xml:space="preserve">
<style type="text/css">
	.st0{fill:#FFFFFF;}
	.st1{fill:#1852FA;}
	.st2{fill:#57CAFF;}
	.st3{fill:url(#SVGID_1_);}
	.st4{fill:url(#SVGID_2_);}
	.st5{fill:url(#SVGID_3_);}
	.st6{fill:#BBDFFF;}
	.st7{fill:url(#SVGID_4_);}
	.st8{fill:url(#SVGID_5_);}
	.st9{fill:url(#SVGID_6_);}
</style>
<title>Ladiboost_1 color_Black_White BG</title>
<g>
	<rect x="-825.9" y="-353.7" class="st0" width="242.6" height="242.6"/>
	<g>
		<g>
			<path class="st1" d="M-676.8-294c0-5,1.1-9.8,3-14.2h-64.9c-24,0-43.4,19.4-43.4,43.4v42.5c0,24,19.4,43.4,43.4,43.4h12.9
				l28.3,28v-28h27.1c24,0,43.4-19.4,43.4-43.4v-39.1c-4.3,1.9-9.1,2.9-14.1,2.9C-660.9-258.5-676.8-274.4-676.8-294z M-743.4-207.2
				c-5.7,0-10.4-4.7-10.4-10.4c0-5.7,4.7-10.4,10.4-10.4c5.7,0,10.4,4.7,10.4,10.4C-733-211.9-737.7-207.2-743.4-207.2z
				 M-704.7-207.2c-5.7,0-10.4-4.7-10.4-10.4c0-5.7,4.7-10.4,10.4-10.4c5.7,0,10.4,4.7,10.4,10.4
				C-694.3-211.9-698.9-207.2-704.7-207.2z M-666-207.2c-1.2,0-2.3-0.2-3.4-0.6c-4.1-1.4-7-5.3-7-9.8c0-3.9,2.1-7.2,5.3-9
				c1.5-0.9,3.3-1.4,5.1-1.4c5.7,0,10.4,4.7,10.4,10.4C-655.6-211.9-660.2-207.2-666-207.2z"/>
			<circle class="st2" cx="-641.3" cy="-294" r="14.2"/>
		</g>
		<linearGradient id="SVGID_1_" gradientUnits="userSpaceOnUse" x1="-863.1831" y1="-229.5285" x2="-649.9033" y2="-229.5285">
			<stop  offset="0.4917" style="stop-color:#1D95FF"/>
			<stop  offset="1" style="stop-color:#1852FA"/>
		</linearGradient>
		<path class="st3" d="M-676.4-217.6c0-3.9,2.1-7.2,5.3-9c-7-38.1-34.1-69.1-69.9-81.5c-22.9,1.2-41.1,20.1-41.1,43.3v42.4
			c0,24,19.4,43.4,43.4,43.4h12.9l28.2,28.2v-28.2h24.5c2.5-9,3.8-18.5,3.8-28.3c0-0.1,0-0.3,0-0.4
			C-673.5-209.2-676.4-213.1-676.4-217.6z M-743.4-207.2c-5.7,0-10.4-4.7-10.4-10.4c0-5.7,4.7-10.4,10.4-10.4
			c5.7,0,10.4,4.7,10.4,10.4C-733-211.9-737.7-207.2-743.4-207.2z M-704.7-207.2c-5.7,0-10.4-4.7-10.4-10.4
			c0-5.7,4.7-10.4,10.4-10.4c5.7,0,10.4,4.7,10.4,10.4C-694.3-211.9-698.9-207.2-704.7-207.2z"/>
	</g>
</g>
<g>
	<path class="st0" d="M-198.1-111.1H-384c-15.7,0-28.3-12.7-28.3-28.3v-185.9c0-15.7,12.7-28.3,28.3-28.3h185.9
		c15.7,0,28.3,12.7,28.3,28.3v185.9C-169.8-123.8-182.5-111.1-198.1-111.1z"/>
	<g>
		<g>
			<path class="st1" d="M-263.2-294c0-5,1.1-9.8,3-14.2h-64.9c-24,0-43.4,19.4-43.4,43.4v42.5c0,24,19.4,43.4,43.4,43.4h12.9
				l28.3,28v-28h27.1c24,0,43.4-19.4,43.4-43.4v-39.1c-4.3,1.9-9.1,2.9-14.1,2.9C-247.3-258.5-263.2-274.4-263.2-294z M-329.8-207.2
				c-5.7,0-10.4-4.7-10.4-10.4c0-5.7,4.7-10.4,10.4-10.4c5.7,0,10.4,4.7,10.4,10.4C-319.4-211.9-324.1-207.2-329.8-207.2z
				 M-291.1-207.2c-5.7,0-10.4-4.7-10.4-10.4c0-5.7,4.7-10.4,10.4-10.4c5.7,0,10.4,4.7,10.4,10.4
				C-280.7-211.9-285.3-207.2-291.1-207.2z M-252.4-207.2c-1.2,0-2.3-0.2-3.4-0.6c-4.1-1.4-7-5.3-7-9.8c0-3.9,2.1-7.2,5.3-9
				c1.5-0.9,3.3-1.4,5.1-1.4c5.7,0,10.4,4.7,10.4,10.4C-242-211.9-246.6-207.2-252.4-207.2z"/>
			<circle class="st2" cx="-227.7" cy="-294" r="14.2"/>
		</g>
		<linearGradient id="SVGID_2_" gradientUnits="userSpaceOnUse" x1="-449.5837" y1="-229.5285" x2="-236.3039" y2="-229.5285">
			<stop  offset="0.4917" style="stop-color:#1D95FF"/>
			<stop  offset="1" style="stop-color:#1852FA"/>
		</linearGradient>
		<path class="st4" d="M-262.8-217.6c0-3.9,2.1-7.2,5.3-9c-7-38.1-34.1-69.1-69.9-81.5c-22.9,1.2-41.1,20.1-41.1,43.3v42.4
			c0,24,19.4,43.4,43.4,43.4h12.9l28.2,28.2v-28.2h24.5c2.5-9,3.8-18.5,3.8-28.3c0-0.1,0-0.3,0-0.4
			C-259.9-209.2-262.8-213.1-262.8-217.6z M-329.8-207.2c-5.7,0-10.4-4.7-10.4-10.4c0-5.7,4.7-10.4,10.4-10.4
			c5.7,0,10.4,4.7,10.4,10.4C-319.4-211.9-324.1-207.2-329.8-207.2z M-291.1-207.2c-5.7,0-10.4-4.7-10.4-10.4
			c0-5.7,4.7-10.4,10.4-10.4c5.7,0,10.4,4.7,10.4,10.4C-280.7-211.9-285.3-207.2-291.1-207.2z"/>
	</g>
</g>
<g>
	<path class="st0" d="M122.5-111.1L122.5-111.1c-67,0-121.3-54.3-121.3-121.3v0c0-67,54.3-121.3,121.3-121.3h0
		c67,0,121.3,54.3,121.3,121.3v0C243.8-165.4,189.5-111.1,122.5-111.1z"/>
	<g>
		<g>
			<path class="st1" d="M150.4-294c0-5,1.1-9.8,3-14.2H88.4c-24,0-43.4,19.4-43.4,43.4v42.5c0,24,19.4,43.4,43.4,43.4h12.9l28.3,28
				v-28h27.1c24,0,43.4-19.4,43.4-43.4v-39.1c-4.3,1.9-9.1,2.9-14.1,2.9C166.3-258.5,150.4-274.4,150.4-294z M83.8-207.2
				c-5.7,0-10.4-4.7-10.4-10.4c0-5.7,4.7-10.4,10.4-10.4c5.7,0,10.4,4.7,10.4,10.4C94.2-211.9,89.5-207.2,83.8-207.2z M122.5-207.2
				c-5.7,0-10.4-4.7-10.4-10.4c0-5.7,4.7-10.4,10.4-10.4c5.7,0,10.4,4.7,10.4,10.4C132.9-211.9,128.3-207.2,122.5-207.2z
				 M161.2-207.2c-1.2,0-2.3-0.2-3.4-0.6c-4.1-1.4-7-5.3-7-9.8c0-3.9,2.1-7.2,5.3-9c1.5-0.9,3.3-1.4,5.1-1.4
				c5.7,0,10.4,4.7,10.4,10.4C171.6-211.9,167-207.2,161.2-207.2z"/>
			<circle class="st2" cx="185.9" cy="-294" r="14.2"/>
		</g>
		<linearGradient id="SVGID_3_" gradientUnits="userSpaceOnUse" x1="-35.9843" y1="-229.5285" x2="177.2955" y2="-229.5285">
			<stop  offset="0.4917" style="stop-color:#1D95FF"/>
			<stop  offset="1" style="stop-color:#1852FA"/>
		</linearGradient>
		<path class="st5" d="M150.8-217.6c0-3.9,2.1-7.2,5.3-9c-7-38.1-34.1-69.1-69.9-81.5C63.2-307,45-288,45-264.8v42.4
			c0,24,19.4,43.4,43.4,43.4h12.9l28.2,28.2v-28.2H154c2.5-9,3.8-18.5,3.8-28.3c0-0.1,0-0.3,0-0.4
			C153.7-209.2,150.8-213.1,150.8-217.6z M83.8-207.2c-5.7,0-10.4-4.7-10.4-10.4c0-5.7,4.7-10.4,10.4-10.4c5.7,0,10.4,4.7,10.4,10.4
			C94.2-211.9,89.5-207.2,83.8-207.2z M122.5-207.2c-5.7,0-10.4-4.7-10.4-10.4c0-5.7,4.7-10.4,10.4-10.4c5.7,0,10.4,4.7,10.4,10.4
			C132.9-211.9,128.3-207.2,122.5-207.2z"/>
	</g>
</g>
<g>
	<g>
		<rect x="-826.9" class="st1" width="242.6" height="242.6"/>
		<g>
			<g>
				<path class="st6" d="M-678.5,63.9c0-5,1.1-9.8,3-14.2h-64.9c-24,0-43.4,19.4-43.4,43.4v42.5c0,24,19.4,43.4,43.4,43.4h12.9
					l28.3,28v-28h27.1c24,0,43.4-19.4,43.4-43.4V96.5c-4.3,1.9-9.1,2.9-14.1,2.9C-662.6,99.4-678.5,83.5-678.5,63.9z M-745,150.7
					c-5.7,0-10.4-4.7-10.4-10.4c0-5.7,4.7-10.4,10.4-10.4c5.7,0,10.4,4.7,10.4,10.4C-734.6,146-739.3,150.7-745,150.7z
					 M-706.3,150.7c-5.7,0-10.4-4.7-10.4-10.4c0-5.7,4.7-10.4,10.4-10.4c5.7,0,10.4,4.7,10.4,10.4
					C-695.9,146-700.6,150.7-706.3,150.7z M-667.6,150.7c-1.2,0-2.3-0.2-3.4-0.6c-4.1-1.4-7-5.3-7-9.8c0-3.9,2.1-7.2,5.3-9
					c1.5-0.9,3.3-1.4,5.1-1.4c5.7,0,10.4,4.7,10.4,10.4C-657.2,146-661.9,150.7-667.6,150.7z"/>
				<circle class="st0" cx="-643" cy="63.9" r="14.2"/>
			</g>
			<linearGradient id="SVGID_4_" gradientUnits="userSpaceOnUse" x1="-788.2824" y1="128.393" x2="-591.2408" y2="128.393">
				<stop  offset="0" style="stop-color:#FFFFFF"/>
				<stop  offset="1" style="stop-color:#A5D5FF"/>
			</linearGradient>
			<path class="st7" d="M-678,140.3c0-3.9,2.1-7.2,5.3-9c-7-38.1-34.1-69.1-69.9-81.5c-22.9,1.2-41.1,20.1-41.1,43.3v42.4
				c0,24,19.4,43.4,43.4,43.4h12.9l28.2,28.2v-28.2h24.5c2.5-9,3.8-18.5,3.8-28.3c0-0.1,0-0.3,0-0.4
				C-675.1,148.7-678,144.8-678,140.3z M-745,150.7c-5.7,0-10.4-4.7-10.4-10.4c0-5.7,4.7-10.4,10.4-10.4c5.7,0,10.4,4.7,10.4,10.4
				C-734.6,146-739.3,150.7-745,150.7z M-706.3,150.7c-5.7,0-10.4-4.7-10.4-10.4c0-5.7,4.7-10.4,10.4-10.4c5.7,0,10.4,4.7,10.4,10.4
				C-695.9,146-700.6,150.7-706.3,150.7z"/>
		</g>
	</g>
</g>
<g>
	<g>
		<path class="st1" d="M-199.4,242.6h-185.9c-15.7,0-28.3-12.7-28.3-28.3V28.3c0-15.7,12.7-28.3,28.3-28.3h185.9
			c15.7,0,28.3,12.7,28.3,28.3v185.9C-171,229.9-183.7,242.6-199.4,242.6z"/>
		<g>
			<g>
				<path class="st6" d="M-265.2,63.9c0-5,1.1-9.8,3-14.2h-64.9c-24,0-43.4,19.4-43.4,43.4v42.5c0,24,19.4,43.4,43.4,43.4h12.9
					l28.3,28v-28h27.1c24,0,43.4-19.4,43.4-43.4V96.5c-4.3,1.9-9.1,2.9-14.1,2.9C-249.3,99.4-265.2,83.5-265.2,63.9z M-331.7,150.7
					c-5.7,0-10.4-4.7-10.4-10.4c0-5.7,4.7-10.4,10.4-10.4c5.7,0,10.4,4.7,10.4,10.4C-321.3,146-326,150.7-331.7,150.7z M-293,150.7
					c-5.7,0-10.4-4.7-10.4-10.4c0-5.7,4.7-10.4,10.4-10.4c5.7,0,10.4,4.7,10.4,10.4C-282.6,146-287.3,150.7-293,150.7z
					 M-254.3,150.7c-1.2,0-2.3-0.2-3.4-0.6c-4.1-1.4-7-5.3-7-9.8c0-3.9,2.1-7.2,5.3-9c1.5-0.9,3.3-1.4,5.1-1.4
					c5.7,0,10.4,4.7,10.4,10.4C-243.9,146-248.6,150.7-254.3,150.7z"/>
				<circle class="st0" cx="-229.7" cy="63.9" r="14.2"/>
			</g>
			<linearGradient id="SVGID_5_" gradientUnits="userSpaceOnUse" x1="-374.9866" y1="128.393" x2="-177.945" y2="128.393">
				<stop  offset="0" style="stop-color:#FFFFFF"/>
				<stop  offset="1" style="stop-color:#A5D5FF"/>
			</linearGradient>
			<path class="st8" d="M-264.7,140.3c0-3.9,2.1-7.2,5.3-9c-7-38.1-34.1-69.1-69.9-81.5c-22.9,1.2-41.1,20.1-41.1,43.3v42.4
				c0,24,19.4,43.4,43.4,43.4h12.9L-286,207v-28.2h24.5c2.5-9,3.8-18.5,3.8-28.3c0-0.1,0-0.3,0-0.4
				C-261.8,148.7-264.7,144.8-264.7,140.3z M-331.7,150.7c-5.7,0-10.4-4.7-10.4-10.4c0-5.7,4.7-10.4,10.4-10.4
				c5.7,0,10.4,4.7,10.4,10.4C-321.3,146-326,150.7-331.7,150.7z M-293,150.7c-5.7,0-10.4-4.7-10.4-10.4c0-5.7,4.7-10.4,10.4-10.4
				c5.7,0,10.4,4.7,10.4,10.4C-282.6,146-287.3,150.7-293,150.7z"/>
		</g>
	</g>
</g>
<g>
	<g>
		<path class="st1" d="M121.3,242.6L121.3,242.6C54.3,242.6,0,188.3,0,121.3v0C0,54.3,54.3,0,121.3,0h0c67,0,121.3,54.3,121.3,121.3
			v0C242.6,188.3,188.3,242.6,121.3,242.6z"/>
		<g>
			<g>
				<path class="st6" d="M148.4,63.9c0-5,1.1-9.8,3-14.2H86.5c-24,0-43.4,19.4-43.4,43.4v42.5c0,24,19.4,43.4,43.4,43.4h12.9
					l28.3,28v-28h27.1c24,0,43.4-19.4,43.4-43.4V96.5c-4.3,1.9-9.1,2.9-14.1,2.9C164.3,99.4,148.4,83.5,148.4,63.9z M81.9,150.7
					c-5.7,0-10.4-4.7-10.4-10.4c0-5.7,4.7-10.4,10.4-10.4c5.7,0,10.4,4.7,10.4,10.4C92.3,146,87.6,150.7,81.9,150.7z M120.6,150.7
					c-5.7,0-10.4-4.7-10.4-10.4c0-5.7,4.7-10.4,10.4-10.4c5.7,0,10.4,4.7,10.4,10.4C131,146,126.3,150.7,120.6,150.7z M159.3,150.7
					c-1.2,0-2.3-0.2-3.4-0.6c-4.1-1.4-7-5.3-7-9.8c0-3.9,2.1-7.2,5.3-9c1.5-0.9,3.3-1.4,5.1-1.4c5.7,0,10.4,4.7,10.4,10.4
					C169.7,146,165,150.7,159.3,150.7z"/>
				<circle class="st0" cx="183.9" cy="63.9" r="14.2"/>
			</g>
			<linearGradient id="SVGID_6_" gradientUnits="userSpaceOnUse" x1="38.6128" y1="128.393" x2="235.6544" y2="128.393">
				<stop  offset="0" style="stop-color:#FFFFFF"/>
				<stop  offset="1" style="stop-color:#A5D5FF"/>
			</linearGradient>
			<path class="st9" d="M148.9,140.3c0-3.9,2.1-7.2,5.3-9c-7-38.1-34.1-69.1-69.9-81.5c-22.9,1.2-41.1,20.1-41.1,43.3v42.4
				c0,24,19.4,43.4,43.4,43.4h12.9l28.2,28.2v-28.2h24.5c2.5-9,3.8-18.5,3.8-28.3c0-0.1,0-0.3,0-0.4
				C151.8,148.7,148.9,144.8,148.9,140.3z M81.9,150.7c-5.7,0-10.4-4.7-10.4-10.4c0-5.7,4.7-10.4,10.4-10.4
				c5.7,0,10.4,4.7,10.4,10.4C92.3,146,87.6,150.7,81.9,150.7z M120.6,150.7c-5.7,0-10.4-4.7-10.4-10.4c0-5.7,4.7-10.4,10.4-10.4
				c5.7,0,10.4,4.7,10.4,10.4C131,146,126.3,150.7,120.6,150.7z"/>
		</g>
	</g>
</g>
</svg>
